HIERARCHY
ROOT Hip
{
	OFFSET	0.0000	0.0000	0.0000
	CHANNELS 6 Xposition Yposition Zposition Xrotation Yrotation Zrotation
	JOINT LowerSpine
	{
		OFFSET	0.0000	10.3005	-5.5740
		CHANNELS 3 Xrotation Yrotation Zrotation
		JOINT MiddleSpine
		{
			OFFSET	0.0000	9.4000	0.4911
			CHANNELS 3 Xrotation Yrotation Zrotation
			JOINT Chest
			{
				OFFSET	0.0000	11.6313	-2.5890
				CHANNELS 3 Xrotation Yrotation Zrotation
				JOINT Neck
				{
					OFFSET	0.0000	26.2109	-0.5451
					CHANNELS 3 Xrotation Yrotation Zrotation
					JOINT Head
					{
						OFFSET	-0.0001	14.8016	4.0260
						CHANNELS 3 Xrotation Yrotation Zrotation
						End Site
						{
							OFFSET	0.0001	20.6815	0.6174
						}
					}
				}
				JOINT LClavicle
				{
					OFFSET	2.6462	25.2948	8.6662
					CHANNELS 3 Xrotation Yrotation Zrotation
					JOINT LShoulder
					{
						OFFSET	15.4595	3.6282	-5.8708
						CHANNELS 3 Xrotation Yrotation Zrotation
						JOINT LForearm
						{
							OFFSET	32.8390	-0.1164	-0.2846
							CHANNELS 3 Xrotation Yrotation Zrotation
							JOINT LHand
							{
								OFFSET	27.3947	0.0795	-0.1641
								CHANNELS 3 Xrotation Yrotation Zrotation
								JOINT LFinger1
								{
									OFFSET	10.6174	0.9286	2.9490
									CHANNELS 3 Xrotation Yrotation Zrotation
									JOINT LFinger11
									{
										OFFSET	3.9715	-0.9684	0.6998
										CHANNELS 3 Xrotation Yrotation Zrotation
										JOINT LFinger12
										{
											OFFSET	2.7112	-0.6613	0.4779
											CHANNELS 3 Xrotation Yrotation Zrotation
											End Site
											{
												OFFSET	1.9293	-0.5759	0.3129
											}
										}
									}
								}
								JOINT LFinger2
								{
									OFFSET	10.7758	1.0723	0.2567
									CHANNELS 3 Xrotation Yrotation Zrotation
									JOINT LFinger21
									{
										OFFSET	4.9105	0.0137	-0.0290
										CHANNELS 3 Xrotation Yrotation Zrotation
										JOINT LFinger22
										{
											OFFSET	2.7219	0.0084	-0.0166
											CHANNELS 3 Xrotation Yrotation Zrotation
											End Site
											{
												OFFSET	2.4447	-0.1726	0.0033
											}
										}
									}
								}
								JOINT LFinger3
								{
									OFFSET	10.2124	0.7156	-2.4161
									CHANNELS 3 Xrotation Yrotation Zrotation
									JOINT LFinger31
									{
										OFFSET	4.4557	-0.2256	-0.2790
										CHANNELS 3 Xrotation Yrotation Zrotation
										JOINT LFinger32
										{
											OFFSET	2.5391	-0.1278	-0.1595
											CHANNELS 3 Xrotation Yrotation Zrotation
											End Site
											{
												OFFSET	2.2450	-0.2760	-0.1061
											}
										}
									}
								}
								JOINT LFinger4
								{
									OFFSET	9.4767	-0.7201	-4.1725
									CHANNELS 3 Xrotation Yrotation Zrotation
									JOINT LFinger41
									{
										OFFSET	2.7407	-0.5715	-0.7566
										CHANNELS 3 Xrotation Yrotation Zrotation
										JOINT LFinger42
										{
											OFFSET	2.0098	-0.4185	-0.5552
											CHANNELS 3 Xrotation Yrotation Zrotation
											End Site
											{
												OFFSET	1.7838	-0.4901	-0.4093
											}
										}
									}
								}
								JOINT LFinger0
								{
									OFFSET	2.1964	-1.6624	1.6651
									CHANNELS 3 Xrotation Yrotation Zrotation
									JOINT LFinger01
									{
										OFFSET	4.0893	-1.3429	3.0830
										CHANNELS 3 Xrotation Yrotation Zrotation
										JOINT LFinger02
										{
											OFFSET	2.6927	-0.9636	1.9400
											CHANNELS 3 Xrotation Yrotation Zrotation
											End Site
											{
												OFFSET	1.9801	-0.6816	1.3559
											}
										}
									}
								}
							}
						}
					}
				}
				JOINT RClavicle
				{
					OFFSET	-2.6462	25.2948	8.6661
					CHANNELS 3 Xrotation Yrotation Zrotation
					JOINT RShoulder
					{
						OFFSET	-15.4622	3.6288	-5.8718
						CHANNELS 3 Xrotation Yrotation Zrotation
						JOINT RForearm
						{
							OFFSET	-32.8390	-0.1164	-0.2846
							CHANNELS 3 Xrotation Yrotation Zrotation
							JOINT RHand
							{
								OFFSET	-27.3947	0.0795	-0.1641
								CHANNELS 3 Xrotation Yrotation Zrotation
								JOINT RFinger1
								{
									OFFSET	-10.6175	0.9287	2.9490
									CHANNELS 3 Xrotation Yrotation Zrotation
									JOINT RFinger11
									{
										OFFSET	-3.9715	-0.9684	0.6998
										CHANNELS 3 Xrotation Yrotation Zrotation
										JOINT RFinger12
										{
											OFFSET	-2.7112	-0.6614	0.4779
											CHANNELS 3 Xrotation Yrotation Zrotation
											End Site
											{
												OFFSET	-1.9293	-0.5759	0.3129
											}
										}
									}
								}
								JOINT RFinger2
								{
									OFFSET	-10.7758	1.0724	0.2568
									CHANNELS 3 Xrotation Yrotation Zrotation
									JOINT RFinger21
									{
										OFFSET	-4.9105	0.0137	-0.0290
										CHANNELS 3 Xrotation Yrotation Zrotation
										JOINT RFinger22
										{
											OFFSET	-2.7219	0.0083	-0.0167
											CHANNELS 3 Xrotation Yrotation Zrotation
											End Site
											{
												OFFSET	-2.4447	-0.1726	0.0033
											}
										}
									}
								}
								JOINT RFinger3
								{
									OFFSET	-10.2124	0.7157	-2.4161
									CHANNELS 3 Xrotation Yrotation Zrotation
									JOINT RFinger31
									{
										OFFSET	-4.4557	-0.2256	-0.2790
										CHANNELS 3 Xrotation Yrotation Zrotation
										JOINT RFinger32
										{
											OFFSET	-2.5391	-0.1277	-0.1595
											CHANNELS 3 Xrotation Yrotation Zrotation
											End Site
											{
												OFFSET	-2.2450	-0.2760	-0.1061
											}
										}
									}
								}
								JOINT RFinger4
								{
									OFFSET	-9.4767	-0.7201	-4.1725
									CHANNELS 3 Xrotation Yrotation Zrotation
									JOINT RFinger41
									{
										OFFSET	-2.7407	-0.5715	-0.7566
										CHANNELS 3 Xrotation Yrotation Zrotation
										JOINT RFinger42
										{
											OFFSET	-2.0097	-0.4184	-0.5552
											CHANNELS 3 Xrotation Yrotation Zrotation
											End Site
											{
												OFFSET	-1.7838	-0.4901	-0.4092
											}
										}
									}
								}
								JOINT RFinger0
								{
									OFFSET	-2.1964	-1.6623	1.6649
									CHANNELS 3 Xrotation Yrotation Zrotation
									JOINT RFinger01
									{
										OFFSET	-4.0892	-1.3431	3.0832
										CHANNELS 3 Xrotation Yrotation Zrotation
										JOINT RFinger02
										{
											OFFSET	-2.6927	-0.9634	1.9400
											CHANNELS 3 Xrotation Yrotation Zrotation
											End Site
											{
												OFFSET	-1.9801	-0.6816	1.3559
											}
										}
									}
								}
							}
						}
					}
				}
			}
		}
	}
	JOINT RThigh
	{
		OFFSET	-11.0190	4.6561	-0.9082
		CHANNELS 3 Xrotation Yrotation Zrotation
		JOINT RShin
		{
			OFFSET	-0.8817	-47.9274	0.0000
			CHANNELS 3 Xrotation Yrotation Zrotation
			JOINT RFoot
			{
				OFFSET	0.0000	-47.0618	0.0000
				CHANNELS 3 Xrotation Yrotation Zrotation
				JOINT RToe
				{
					OFFSET	0.0000	-5.1725	10.8164
					CHANNELS 3 Xrotation Yrotation Zrotation
					End Site
					{
						OFFSET	0.0000	0.0000	7.2563
					}
				}
			}
		}
	}
	JOINT LThigh
	{
		OFFSET	11.0188	4.6564	-0.9083
		CHANNELS 3 Xrotation Yrotation Zrotation
		JOINT LShin
		{
			OFFSET	0.8818	-47.9278	0.0000
			CHANNELS 3 Xrotation Yrotation Zrotation
			JOINT LFoot
			{
				OFFSET	0.0000	-47.0618	0.0000
				CHANNELS 3 Xrotation Yrotation Zrotation
				JOINT LToe
				{
					OFFSET	0.0000	-5.1725	10.8164
					CHANNELS 3 Xrotation Yrotation Zrotation
					End Site
					{
						OFFSET	0.0000	0.0000	7.2563
					}
				}
			}
		}
	}
}
MOTION
Frames:	7
Frame Time: 0.0333333000
	11.3533	95.8977	-90.8786	-12.070690	-1.593412	0.543917	0.000000	0.000000	0.000000	2.306975	0.489331	1.522278	7.635617	1.865175	4.989714	0.000000	0.000000	0.000000	29.034820	-16.681630	-0.895177	0.000000	0.000000	-14.872870	26.628930	-33.167220	-55.043830	0.000000	-36.146040	0.000000	0.000000	0.000000	0.000000	0.000000	0.000000	0.000000	0.000000	0.000000	0.000000	0.000000	0.000000	0.000000	0.000000	0.000000	0.000000	0.000000	0.000000	0.000000	0.000000	0.000000	0.000000	0.000000	0.000000	0.000000	0.000000	0.000000	0.000000	0.000000	0.000000	0.000000	0.000000	0.000000	0.000000	0.000000	0.000000	0.000000	0.000000	0.000000	0.000000	0.000000	0.000000	0.000000	0.000000	0.000000	0.000000	0.000000	0.000000	0.000000	0.000000	0.000000	10.649310	35.616590	10.283740	54.285880	-180.000000	37.390710	-180.000000	2.127825	4.812140	6.639183	0.000000	0.000000	0.000000	0.000000	0.000000	0.000000	0.000000	0.000000	0.000000	0.000000	0.000000	0.000000	0.000000	0.000000	0.000000	0.000000	0.000000	0.000000	0.000000	0.000000	0.000000	0.000000	0.000000	0.000000	0.000000	0.000000	0.000000	0.000000	0.000000	0.000000	0.000000	0.000000	0.000000	0.000000	0.000000	0.000000	0.000000	0.000000	0.000000	0.000000	0.000000	0.000000	0.000000	0.000000	0.000000	-9.260068	8.842082	0.759780	39.485760	0.000003	-0.000001	-9.045255	-1.196741	-0.684656	0.000000	0.000000	0.000000	-5.904845	10.948630	2.988139	36.504070	0.000004	0.000000	-10.020710	-6.058855	-3.572292	0.000000	0.000000	0.000000
	10.8933	96.0495	-91.2070	-12.105980	-4.001544	0.004514	0.000000	0.000000	0.000000	2.678000	0.488467	1.568779	8.869734	1.907330	5.128860	0.000000	0.000000	0.000000	31.468420	-15.966850	-0.818039	0.000000	0.000000	-14.725330	28.276170	-34.594800	-53.201450	0.000000	-36.958130	0.000000	0.000000	0.000000	0.000000	0.000000	0.000000	0.000000	0.000000	0.000000	0.000000	0.000000	0.000000	0.000000	0.000000	0.000000	0.000000	0.000000	0.000000	0.000000	0.000000	0.000000	0.000000	0.000000	0.000000	0.000000	0.000000	0.000000	0.000000	0.000000	0.000000	0.000000	0.000000	0.000000	0.000000	0.000000	0.000000	0.000000	0.000000	0.000000	0.000000	0.000000	0.000000	0.000000	0.000000	0.000000	0.000000	0.000000	0.000000	0.000000	0.000000	0.000000	11.199800	32.731460	11.645300	53.505130	-180.000000	39.013320	-180.000000	1.195213	3.621328	6.228511	0.000000	0.000000	0.000000	0.000000	0.000000	0.000000	0.000000	0.000000	0.000000	0.000000	0.000000	0.000000	0.000000	0.000000	0.000000	0.000000	0.000000	0.000000	0.000000	0.000000	0.000000	0.000000	0.000000	0.000000	0.000000	0.000000	0.000000	0.000000	0.000000	0.000000	0.000000	0.000000	0.000000	0.000000	0.000000	0.000000	0.000000	0.000000	0.000000	0.000000	0.000000	0.000000	0.000000	0.000000	0.000000	-9.100852	8.622629	0.873650	37.728840	0.000003	-0.000001	-8.159686	0.410613	0.232432	0.000000	0.000000	0.000000	-5.942634	12.218730	3.503502	36.579270	0.000004	0.000000	-9.921340	-5.100543	-3.015301	0.000000	0.000000	0.000000
	10.6227	96.2956	-91.5259	-12.019010	-5.059796	-0.420983	0.000000	0.000000	0.000000	2.930089	0.529727	1.626833	9.702815	2.081986	5.304344	0.000000	0.000000	0.000000	33.134100	-16.523830	1.455331	0.000000	0.000000	-14.650670	28.822340	-35.490900	-51.876250	0.000000	-37.185910	0.000000	0.000000	0.000000	0.000000	0.000000	0.000000	0.000000	0.000000	0.000000	0.000000	0.000000	0.000000	0.000000	0.000000	0.000000	0.000000	0.000000	0.000000	0.000000	0.000000	0.000000	0.000000	0.000000	0.000000	0.000000	0.000000	0.000000	0.000000	0.000000	0.000000	0.000000	0.000000	0.000000	0.000000	0.000000	0.000000	0.000000	0.000000	0.000000	0.000000	0.000000	0.000000	0.000000	0.000000	0.000000	0.000000	0.000000	0.000000	0.000000	0.000000	0.000000	11.562700	30.900350	12.185690	53.666160	-180.000000	39.744420	-180.000000	-0.101442	1.331767	2.406513	0.000000	0.000000	0.000000	0.000000	0.000000	0.000000	0.000000	0.000000	0.000000	0.000000	0.000000	0.000000	0.000000	0.000000	0.000000	0.000000	0.000000	0.000000	0.000000	0.000000	0.000000	0.000000	0.000000	0.000000	0.000000	0.000000	0.000000	0.000000	0.000000	0.000000	0.000000	0.000000	0.000000	0.000000	0.000000	0.000000	0.000000	0.000000	0.000000	0.000000	0.000000	0.000000	0.000000	0.000000	0.000000	-8.725230	7.141222	0.660578	36.086350	0.000003	-0.000001	-6.944925	1.544972	0.851921	0.000000	0.000000	0.000000	-6.035906	12.278250	3.790707	36.252990	0.000003	0.000000	-9.126959	-4.646454	-2.706788	0.000000	0.000000	0.000000
	10.5163	96.5806	-91.7587	-11.815710	-5.145746	-0.656117	0.000000	0.000000	0.000000	3.014970	0.573674	1.647131	9.980382	2.241071	5.358541	0.000000	0.000000	0.000000	34.167720	-17.515890	3.552481	0.000000	0.000000	-14.609650	28.227310	-35.639290	-51.083550	0.000000	-37.107360	0.000000	0.000000	0.000000	0.000000	0.000000	0.000000	0.000000	0.000000	0.000000	0.000000	0.000000	0.000000	0.000000	0.000000	0.000000	0.000000	0.000000	0.000000	0.000000	0.000000	0.000000	0.000000	0.000000	0.000000	0.000000	0.000000	0.000000	0.000000	0.000000	0.000000	0.000000	0.000000	0.000000	0.000000	0.000000	0.000000	0.000000	0.000000	0.000000	0.000000	0.000000	0.000000	0.000000	0.000000	0.000000	0.000000	0.000000	0.000000	0.000000	0.000000	0.000000	11.758980	29.739180	12.061130	54.064300	-180.000000	39.831970	-180.000000	-0.000003	-0.000004	0.000002	0.000000	0.000000	0.000000	0.000000	0.000000	0.000000	0.000000	0.000000	0.000000	0.000000	0.000000	0.000000	0.000000	0.000000	0.000000	0.000000	0.000000	0.000000	0.000000	0.000000	0.000000	0.000000	0.000000	0.000000	0.000000	0.000000	0.000000	0.000000	0.000000	0.000000	0.000000	0.000000	0.000000	0.000000	0.000000	0.000000	0.000000	0.000000	0.000000	0.000000	0.000000	0.000000	0.000000	0.000000	0.000000	-8.430263	5.018719	0.272886	34.847110	0.000003	-0.000001	-6.149829	2.182725	1.195018	0.000000	0.000000	0.000000	-6.034297	11.149170	3.741951	35.580790	0.000003	0.000000	-8.567593	-4.704079	-2.706348	0.000000	0.000000	0.000000
	10.4777	96.9136	-91.8808	-11.626830	-4.766784	-0.787974	0.000000	0.000000	0.000000	3.021951	0.571950	1.622817	10.004990	2.231196	5.277649	0.000000	0.000000	0.000000	34.039210	-17.578190	4.005641	0.000000	0.000000	-14.592190	26.976280	-35.584060	-50.565170	0.000000	-36.089080	0.000000	0.000000	0.000000	0.000000	0.000000	0.000000	0.000000	0.000000	0.000000	0.000000	0.000000	0.000000	0.000000	0.000000	0.000000	0.000000	0.000000	0.000000	0.000000	0.000000	0.000000	0.000000	0.000000	0.000000	0.000000	0.000000	0.000000	0.000000	0.000000	0.000000	0.000000	0.000000	0.000000	0.000000	0.000000	0.000000	0.000000	0.000000	0.000000	0.000000	0.000000	0.000000	0.000000	0.000000	0.000000	0.000000	0.000000	0.000000	0.000000	0.000000	0.000000	11.888570	28.587820	11.406110	54.441540	-180.000000	40.191170	-180.000000	1.144358	-0.987804	0.393984	0.000000	0.000000	0.000000	0.000000	0.000000	0.000000	0.000000	0.000000	0.000000	0.000000	0.000000	0.000000	0.000000	0.000000	0.000000	0.000000	0.000000	0.000000	0.000000	0.000000	0.000000	0.000000	0.000000	0.000000	0.000000	0.000000	0.000000	0.000000	0.000000	0.000000	0.000000	0.000000	0.000000	0.000000	0.000000	0.000000	0.000000	0.000000	0.000000	0.000000	0.000000	0.000000	0.000000	0.000000	0.000000	-7.920560	3.504825	0.063538	33.218240	0.000003	-0.000001	-5.740577	2.462110	1.332555	0.000000	0.000000	0.000000	-5.647701	10.262620	3.602981	34.377340	0.000003	0.000000	-7.855374	-4.292561	-2.424345	0.000000	0.000000	0.000000
	10.4458	97.2737	-91.8727	-11.553750	-4.154084	-0.926119	0.000000	0.000000	0.000000	2.995291	0.546034	1.583911	9.920576	2.134527	5.154727	0.000000	0.000000	0.000000	36.204160	-19.352350	6.178781	0.000000	0.000000	-14.626620	24.757310	-35.166850	-50.754250	0.000000	-33.976680	0.000000	0.000000	0.000000	0.000000	0.000000	0.000000	0.000000	0.000000	0.000000	0.000000	0.000000	0.000000	0.000000	0.000000	0.000000	0.000000	0.000000	0.000000	0.000000	0.000000	0.000000	0.000000	0.000000	0.000000	0.000000	0.000000	0.000000	0.000000	0.000000	0.000000	0.000000	0.000000	0.000000	0.000000	0.000000	0.000000	0.000000	0.000000	0.000000	0.000000	0.000000	0.000000	0.000000	0.000000	0.000000	0.000000	0.000000	0.000000	0.000000	0.000000	0.000000	11.915240	27.777730	10.331560	54.754200	-180.000000	40.854030	-180.000000	0.058103	-0.835176	-0.262994	0.000000	0.000000	0.000000	0.000000	0.000000	0.000000	0.000000	0.000000	0.000000	0.000000	0.000000	0.000000	0.000000	0.000000	0.000000	0.000000	0.000000	0.000000	0.000000	0.000000	0.000000	0.000000	0.000000	0.000000	0.000000	0.000000	0.000000	0.000000	0.000000	0.000000	0.000000	0.000000	0.000000	0.000000	0.000000	0.000000	0.000000	0.000000	0.000000	0.000000	0.000000	0.000000	0.000000	0.000000	0.000000	-6.987512	2.337481	0.046654	31.218360	0.000003	-0.000001	-4.904401	2.638510	1.407215	0.000000	0.000000	0.000000	-4.565335	8.867899	3.262962	32.221140	0.000003	0.000000	-6.720517	-3.492419	-1.927772	0.000000	0.000000	0.000000
	10.3628	97.6357	-91.7713	-11.527740	-3.267110	-1.054368	0.000000	0.000000	0.000000	2.958388	0.538307	1.548460	9.800066	2.098020	5.040088	0.000000	0.000000	0.000000	36.299510	-20.860870	7.195031	0.000000	0.000000	-14.685970	21.431670	-33.697640	-51.760370	0.000000	-31.891880	0.000000	0.000000	0.000000	0.000000	0.000000	0.000000	0.000000	0.000000	0.000000	0.000000	0.000000	0.000000	0.000000	0.000000	0.000000	0.000000	0.000000	0.000000	0.000000	0.000000	0.000000	0.000000	0.000000	0.000000	0.000000	0.000000	0.000000	0.000000	0.000000	0.000000	0.000000	0.000000	0.000000	0.000000	0.000000	0.000000	0.000000	0.000000	0.000000	0.000000	0.000000	0.000000	0.000000	0.000000	0.000000	0.000000	0.000000	0.000000	0.000000	0.000000	0.000000	11.889890	27.493750	9.222322	55.289910	-180.000000	40.953090	-180.000000	0.189927	-1.820941	0.134638	0.000000	0.000000	0.000000	0.000000	0.000000	0.000000	0.000000	0.000000	0.000000	0.000000	0.000000	0.000000	0.000000	0.000000	0.000000	0.000000	0.000000	0.000000	0.000000	0.000000	0.000000	0.000000	0.000000	0.000000	0.000000	0.000000	0.000000	0.000000	0.000000	0.000000	0.000000	0.000000	0.000000	0.000000	0.000000	0.000000	0.000000	0.000000	0.000000	0.000000	0.000000	0.000000	0.000000	0.000000	0.000000	-5.790738	1.011462	0.143942	29.281220	0.000003	-0.000001	-3.652560	2.557998	1.328993	0.000000	0.000000	0.000000	-3.145929	5.666387	2.753592	29.499800	0.000003	0.000000	-5.634908	-3.069255	-1.661750	0.000000	0.000000	0.000000
